<svg width="1440" height="962" viewBox="0 0 1440 962" fill="none" xmlns="http://www.w3.org/2000/svg">
<g clip-path="url(#clip0_257_387)">
<path d="M1440 0V962H0V0H1440Z" fill="url(#paint0_linear_257_387)"/>
<path d="M1440 439.521V962H826.5C831.475 954.221 836.9 946.828 842.9 939.91C878.175 899.262 928.225 882.012 977.025 875.182C1025.85 868.353 1075.4 870.491 1123.97 861.643C1172.55 852.766 1221.95 831.031 1253.43 786.197C1282.38 744.956 1292.52 689.611 1296.5 636.137C1300.15 586.909 1300.85 532.604 1328.62 495.816C1341.12 479.278 1357.97 468.203 1375.25 459.711C1395.95 449.557 1417.8 442.847 1440 439.521Z" fill="url(#paint1_linear_257_387)"/>
<path d="M1049.18 0C999.9 69.8044 941.3 134.472 866.675 147.329C833.25 153.059 799.25 147.714 765.5 149.021C689.875 151.871 615.55 189.55 561.475 252.436C535.875 282.187 514.5 317.49 485.225 341.955C397.025 415.649 270.725 368.826 172.225 420.905C111.825 452.823 69.1 518.233 33.55 584.415C21.875 606.179 10.675 628.299 0 650.745V533.168C33.575 496.41 66.475 458.791 97.65 419.183C118.9 392.163 139.5 364.046 155.15 332.098C180.825 279.752 192.375 217.697 187 157.453C182 101.277 163.2 49.347 139.375 0H201.8C232.225 43.2603 268.95 77.0194 309.35 97.9518C378.15 133.611 457.075 131.77 528.4 92.8449C553.85 78.9493 578.475 60.4813 604.7 51.5442C694.575 20.873 781.3 106.562 872.25 90.1727C918.175 81.8888 960.375 47.714 995.425 0L1049.18 0Z" fill="url(#paint2_linear_257_387)"/>
<path d="M995.425 0C960.375 47.714 918.175 81.8888 872.25 90.1727C781.3 106.562 694.575 20.873 604.7 51.5442C578.475 60.511 553.85 78.9493 528.4 92.8449C457.075 131.77 378.15 133.611 309.35 97.9518C268.95 77.0194 232.225 43.29 201.8 0H995.425Z" fill="url(#paint3_linear_257_387)"/>
<path d="M1440 371.825V439.521C1417.8 442.847 1395.95 449.557 1375.25 459.711C1357.97 468.203 1341.13 479.278 1328.63 495.816C1300.85 532.604 1300.15 586.909 1296.5 636.137C1292.53 689.612 1282.38 744.956 1253.43 786.197C1221.95 831.031 1172.55 852.766 1123.97 861.643C1075.4 870.491 1025.85 868.354 977.025 875.183C928.225 882.012 878.175 899.262 842.9 939.91C836.9 946.828 831.475 954.221 826.5 962H658.225C638.525 939.395 618.833 916.79 599.15 894.185C569.75 860.426 540.125 826.459 508.325 801.162C476.55 775.835 442.05 759.475 410.35 763.751C397.725 765.443 385.75 770.372 374.35 776.815C352.9 789.018 331.925 809.654 327.275 846.026C323.075 879.013 333.75 918.265 349.875 948.134C352.45 952.944 355.175 957.576 358 962H268.925C261.625 945.046 256.075 927.083 252.65 908.377C241.575 847.718 255.85 779.131 295.125 738.216C348.55 682.575 431.975 690.473 496.05 726.934C539 751.399 577.275 786.702 621.25 808.407C674.05 834.446 732.3 839.612 789.4 843.056C831.65 845.58 875.075 847.184 915.075 830.794C969.3 808.615 1010.72 756.031 1043.88 700.419C1077 644.837 1104.43 584.059 1142.97 533.643C1198.47 461.077 1274.8 413.749 1354.78 389.61C1382.8 381.118 1411.28 375.388 1440 371.825Z" fill="url(#paint4_linear_257_387)"/>
<path d="M658.225 962H358C355.175 957.576 352.45 952.944 349.875 948.134C333.75 918.265 323.075 879.013 327.275 846.025C331.925 809.654 352.9 789.018 374.35 776.815C385.75 770.372 397.725 765.443 410.35 763.721C442.05 759.475 476.55 775.835 508.325 801.162C540.125 826.459 569.75 860.426 599.15 894.185C618.833 916.79 638.525 939.395 658.225 962Z" fill="url(#paint5_linear_257_387)"/>
<path d="M155.15 332.098C139.5 364.046 118.9 392.163 97.65 419.183C66.475 458.791 33.575 496.41 0 533.168V0H139.375C163.2 49.347 182 101.277 187 157.453C192.375 217.697 180.825 279.752 155.15 332.098Z" fill="url(#paint6_linear_257_387)"/>
</g>
<defs>
<linearGradient id="paint0_linear_257_387" x1="120.004" y1="-565.832" x2="1795.6" y2="246.152" gradientUnits="userSpaceOnUse">
<stop stop-color="#19485F"/>
<stop offset="1" stop-color="#476D7F"/>
</linearGradient>
<linearGradient id="paint1_linear_257_387" x1="1125.45" y1="183.247" x2="1736.34" y2="853.76" gradientUnits="userSpaceOnUse">
<stop stop-color="#19485F"/>
<stop offset="1" stop-color="#658494"/>
</linearGradient>
<linearGradient id="paint2_linear_257_387" x1="595.001" y1="1033.67" x2="-248.445" y2="-38.9401" gradientUnits="userSpaceOnUse">
<stop stop-color="#19485F"/>
<stop offset="1" stop-color="#658494"/>
</linearGradient>
<linearGradient id="paint3_linear_257_387" x1="604.817" y1="-73.0327" x2="608.305" y2="229.432" gradientUnits="userSpaceOnUse">
<stop stop-color="#19485F"/>
<stop offset="1" stop-color="#658494"/>
</linearGradient>
<linearGradient id="paint4_linear_257_387" x1="896.754" y1="169.252" x2="1342.27" y2="1413.39" gradientUnits="userSpaceOnUse">
<stop stop-color="#19485F"/>
<stop offset="1" stop-color="#95ABB5"/>
</linearGradient>
<linearGradient id="paint5_linear_257_387" x1="490.694" y1="1031.22" x2="271.368" y2="766.619" gradientUnits="userSpaceOnUse">
<stop stop-color="#19485F"/>
<stop offset="1" stop-color="#658494"/>
</linearGradient>
<linearGradient id="paint6_linear_257_387" x1="244.325" y1="553.637" x2="-81.079" y2="565.906" gradientUnits="userSpaceOnUse">
<stop stop-color="#19485F"/>
<stop offset="1" stop-color="#658494"/>
</linearGradient>
<clipPath id="clip0_257_387">
<rect width="1440" height="962" fill="white"/>
</clipPath>
</defs>
</svg>
