<svg width="600" height="453" viewBox="0 0 600 453" fill="none" xmlns="http://www.w3.org/2000/svg">
<g clip-path="url(#clip0_366_1873)">
<path d="M515.512 336.498V389.444H84.4877V63.5557H515.512V336.498Z" fill="white"/>
<path d="M84.4877 388.95V389.938H515.512V388.95H84.4877ZM84.4877 63.0615V64.0493H515.512V63.0615H84.4877Z" fill="#F2F2F2"/>
<path d="M459.686 353.913C459.809 353.874 459.919 353.824 460.043 353.785C460.536 353.607 461.057 353.449 461.592 353.311H461.606C461.604 353.261 461.608 353.211 461.62 353.162C460.975 353.409 460.331 353.666 459.686 353.913ZM453.446 358.418C453.473 358.388 453.487 358.358 453.514 358.329C453.651 358.141 453.816 357.943 453.981 357.756C455.286 356.294 456.891 355.132 458.685 354.348C458.814 354.28 458.946 354.221 459.083 354.17C459.243 354.093 459.408 354.023 459.576 353.963C459.617 353.943 459.645 353.933 459.686 353.913C455.668 355.464 451.608 356.975 447.494 358.418H453.446ZM0 62.5684L3.05912 113.599L600 64.544V62.5684H0ZM600 336.498V390.433H0V388.457L35.5714 335.856L267.64 388.457C315.719 388.572 363.605 382.378 410.08 370.034C411.013 369.797 411.932 369.54 412.851 369.284C416.883 368.177 420.846 367.031 424.81 365.826H424.851C432.531 363.525 440.079 361.055 447.494 358.418C451.567 356.985 455.594 355.5 459.576 353.963C459.611 353.942 459.648 353.925 459.686 353.913C460.331 353.666 460.975 353.409 461.62 353.162L464.047 352.214H464.088C472.756 348.777 481.177 345.122 489.433 341.259C490.036 340.983 490.626 340.706 491.216 340.42C496.002 338.158 500.715 335.823 505.356 333.416C511.171 330.413 516.862 327.305 522.43 324.091C533.841 317.512 544.726 310.512 555.085 303.09C565.749 295.483 575.986 287.291 585.75 278.553C589.7 275.017 593.536 271.411 597.257 267.737C598.176 266.828 599.095 265.919 600 265V336.498Z" fill="#E8EDEF" class="login-frame"/>
<path d="M167.921 333.391H84.5815V337.905H167.921C168.518 337.905 169.091 337.667 169.513 337.244C169.935 336.821 170.173 336.246 170.173 335.648C170.173 335.049 169.935 334.475 169.513 334.052C169.091 333.628 168.518 333.391 167.921 333.391Z" fill="#E8EDEF"/>
<path d="M167.921 317.586H84.5815V322.1H167.921C168.518 322.1 169.091 321.862 169.513 321.439C169.935 321.016 170.173 320.442 170.173 319.843C170.173 319.244 169.935 318.67 169.513 318.247C169.091 317.824 168.518 317.586 167.921 317.586Z" fill="#E8EDEF"/>
<path d="M168.591 301.879C168.485 301.848 168.376 301.825 168.266 301.81C168.152 301.79 168.037 301.78 167.921 301.78H84.5815V306.295H167.921C168.451 306.291 168.964 306.103 169.37 305.761C169.678 305.5 169.91 305.161 170.042 304.779C170.175 304.397 170.203 303.986 170.123 303.59C170.044 303.193 169.86 302.825 169.59 302.525C169.321 302.224 168.976 302.001 168.591 301.879Z" fill="#E8EDEF"/>
<path d="M198.291 295.504L190.951 262.847L188.557 252.208C188.358 251.33 187.82 250.568 187.06 250.088C186.301 249.608 185.383 249.45 184.507 249.65L180.892 250.469L151.897 257.028C151.464 257.126 151.054 257.309 150.692 257.565C150.329 257.822 150.021 258.147 149.784 258.523C149.547 258.899 149.386 259.319 149.311 259.757C149.235 260.196 149.247 260.645 149.345 261.078C147.788 275.609 150.862 289.014 157.532 301.559C158.025 302.497 158.547 303.436 159.089 304.374C159.232 305.023 159.565 305.615 160.044 306.073C160.448 306.46 160.941 306.741 161.479 306.891C162.017 307.041 162.583 307.055 163.128 306.933L166.931 306.073L169.276 305.54L195.739 299.554C196.613 299.356 197.373 298.818 197.851 298.058C198.33 297.299 198.488 296.38 198.291 295.504Z" fill="#E8EDEF"/>
<path d="M195.256 293.686L188.261 262.619L186.586 255.161C186.402 254.34 185.899 253.626 185.19 253.176C184.481 252.726 183.622 252.576 182.803 252.761L180.576 253.264L154.773 259.102C153.954 259.287 153.242 259.791 152.793 260.502C152.344 261.213 152.196 262.074 152.379 262.896C152.606 274.206 153.788 284.469 158.645 290.732C159.198 293.168 160.385 295.414 162.084 297.241C163.783 299.068 165.935 300.411 168.32 301.134C168.379 301.153 168.429 301.173 168.488 301.193C168.527 301.203 168.576 301.223 168.616 301.233C170.861 301.866 173.228 301.927 175.502 301.41L192.862 297.479C193.681 297.294 194.393 296.79 194.842 296.079C195.291 295.368 195.44 294.507 195.256 293.686Z" fill="white"/>
<path d="M169.549 269.462C170.12 268.801 170.889 268.344 171.741 268.157C172.592 267.971 173.481 268.066 174.275 268.429C175.068 268.851 175.703 269.52 176.084 270.336C176.466 271.151 176.573 272.068 176.39 272.95C176.082 274.988 175.021 276.843 174.924 278.929C174.838 279.843 174.997 280.764 175.385 281.595C175.773 282.427 176.377 283.139 177.133 283.657C178.29 284.362 179.481 282.617 178.318 281.909C176.405 280.743 177.048 278.182 177.603 276.435C178.296 274.253 179.018 272.029 178.161 269.781C177.781 268.84 177.172 268.009 176.39 267.365C175.607 266.721 174.676 266.283 173.682 266.093C172.687 265.903 171.661 265.965 170.697 266.276C169.733 266.586 168.861 267.133 168.163 267.868C167.25 268.855 168.625 270.461 169.549 269.462Z" fill="#19485F"/>
<path d="M178.838 289.75C180.002 289.75 180.946 288.804 180.946 287.636C180.946 286.468 180.002 285.521 178.838 285.521C177.673 285.521 176.729 286.468 176.729 287.636C176.729 288.804 177.673 289.75 178.838 289.75Z" fill="#19485F"/>
<path d="M430.282 207.277C428.15 205.884 425.717 205.021 423.185 204.76C420.653 204.499 418.095 204.847 415.724 205.775C413.353 206.703 411.237 208.185 409.552 210.097C407.867 212.009 406.66 214.297 406.033 216.77L376.665 293.493L326.184 264.758C325.963 261.455 324.704 258.308 322.587 255.767C320.471 253.226 317.607 251.422 314.405 250.614C311.203 249.806 307.829 250.036 304.765 251.27C301.701 252.504 299.106 254.679 297.352 257.484C295.597 260.288 294.774 263.577 294.999 266.88C295.224 270.182 296.487 273.329 298.606 275.867C300.725 278.406 303.592 280.206 306.794 281.01C309.997 281.815 313.372 281.581 316.434 280.344C327.065 291.719 373.153 338.361 392.233 320.137C408.271 304.819 431.416 245.452 436.987 224.951C437.879 221.673 437.711 218.195 436.506 215.019C435.301 211.843 433.122 209.132 430.282 207.277Z" fill="#CEA6B2"/>
<path d="M375.137 323.352L384.404 365.35L452.172 371.496L458.401 334.927L375.137 323.352Z" fill="#CEA6B2"/>
<path d="M470.009 388.952H373.802L378.797 373.908L380.433 351.583L381.369 351.603L455.359 352.838L456.699 352.857L458.975 372.021C463.314 377.203 467.018 382.887 470.009 388.952Z" fill="#2F2E41"/>
<path d="M417.433 186.924L451.165 185.182L466.833 210.003C466.833 210.003 481.95 213.112 479.906 247.94C477.863 282.769 458.401 315.163 458.401 315.163L459.847 310.193L457.336 317.387L457.658 321.426L461.084 325.704L461.436 330.128L458.401 337.128L462.529 343.83L375.754 335.401L372.58 323.811L377.209 317.588L374.624 309.47L378.511 301.663L380.538 299.969C380.538 299.969 358.363 266.567 383.819 241.409L394.035 223.995L405.467 210.011L417.433 186.924Z" fill="#123343"/>
<path d="M306.741 235.746C297.616 232.478 285.799 233.753 279.395 241.72C273.659 248.857 272.971 260.219 280.269 266.588C289.153 274.341 301.458 271.489 311.158 267.115C320.035 263.112 329.806 256.659 329.668 245.708C329.647 242.893 328.958 240.124 327.657 237.63C326.356 235.136 324.481 232.988 322.187 231.365C319.859 229.788 317.193 228.781 314.406 228.427C311.618 228.074 308.787 228.382 306.141 229.328C303.798 230.187 304.81 233.974 307.179 233.106C309.087 232.378 311.133 232.086 313.168 232.252C315.202 232.417 317.174 233.035 318.941 234.06C320.707 235.086 322.223 236.494 323.379 238.181C324.534 239.868 325.3 241.793 325.62 243.814C326.99 252.907 319.242 258.795 312.041 262.383C304.142 266.319 294.087 270.085 285.63 265.563C278.396 261.695 277.073 252.873 281.084 246.098C286.056 237.698 297.25 236.496 305.702 239.524C308.075 240.373 309.096 236.59 306.741 235.746Z" fill="#0E2834"/>
<path d="M132.186 159.933C125.633 157.586 117.145 158.501 112.545 164.224C108.425 169.349 107.931 177.511 113.173 182.085C119.554 187.653 128.392 185.605 135.359 182.463C141.735 179.588 148.752 174.954 148.654 167.088C148.639 165.066 148.143 163.077 147.209 161.286C146.274 159.494 144.928 157.952 143.28 156.786C141.608 155.653 139.694 154.93 137.692 154.676C135.69 154.422 133.656 154.644 131.755 155.324C130.072 155.94 130.799 158.66 132.501 158.037C133.871 157.514 135.341 157.304 136.802 157.423C138.264 157.542 139.68 157.985 140.949 158.722C142.218 159.459 143.306 160.47 144.136 161.682C144.966 162.894 145.516 164.276 145.746 165.728C146.73 172.258 141.165 176.488 135.993 179.065C130.319 181.892 123.098 184.596 117.024 181.349C111.828 178.57 110.878 172.234 113.758 167.368C117.33 161.335 125.37 160.472 131.44 162.646C133.144 163.256 133.878 160.539 132.186 159.933Z" fill="#E8EDEF"/>
<path d="M211.828 178.566C221.271 175.991 227.515 168.703 225.775 162.287C224.034 155.871 214.968 152.758 205.526 155.333C196.083 157.908 189.839 165.197 191.579 171.613C193.32 178.028 202.386 181.142 211.828 178.566Z" fill="#E8EDEF"/>
<path d="M167.923 156.198L167.958 178.319C167.971 178.703 168.133 179.067 168.408 179.334C168.684 179.601 169.052 179.75 169.436 179.75C169.819 179.75 170.187 179.601 170.463 179.334C170.739 179.067 170.9 178.703 170.914 178.319L170.879 156.198C170.865 155.814 170.704 155.45 170.428 155.183C170.153 154.916 169.784 154.767 169.401 154.767C169.018 154.767 168.649 154.916 168.374 155.183C168.098 155.45 167.936 155.814 167.923 156.198Z" fill="#E8EDEF"/>
<path d="M157.615 168.097L179.119 168.15C179.503 168.137 179.866 167.975 180.132 167.698C180.398 167.422 180.547 167.053 180.547 166.668C180.547 166.284 180.398 165.915 180.132 165.638C179.866 165.362 179.503 165.2 179.119 165.187L157.615 165.134C157.232 165.147 156.869 165.309 156.603 165.585C156.337 165.862 156.188 166.231 156.188 166.616C156.188 167 156.337 167.369 156.603 167.646C156.869 167.922 157.232 168.084 157.615 168.097Z" fill="#E8EDEF"/>
<path d="M85.6404 178.665C85.6673 179 85.5614 179.332 85.3456 179.589C85.1297 179.846 84.8214 180.007 84.4877 180.038V177.134C84.8272 177.215 85.128 177.412 85.3383 177.692C85.5487 177.971 85.6555 178.315 85.6404 178.665Z" fill="#F2F2F2"/>
<path d="M90.9255 180.612C92.0138 180.612 92.896 179.728 92.896 178.637C92.896 177.546 92.0138 176.661 90.9255 176.661C89.8373 176.661 88.9551 177.546 88.9551 178.637C88.9551 179.728 89.8373 180.612 90.9255 180.612Z" fill="#F2F2F2"/>
<path d="M156.793 358.417C153.207 358.417 150.281 360.857 150.281 363.85C150.281 366.843 153.207 369.283 156.793 369.283H515.512V358.417H156.793Z" fill="white"/>
<path d="M429.66 358.417V369.283H156.793C153.207 369.283 150.281 366.843 150.281 363.85C150.281 360.857 153.207 358.417 156.793 358.417H429.66Z" fill="#19485F"/>
<path d="M419.808 374.38C425.793 374.38 430.645 369.515 430.645 363.514C430.645 357.513 425.793 352.648 419.808 352.648C413.822 352.648 408.97 357.513 408.97 363.514C408.97 369.515 413.822 374.38 419.808 374.38Z" fill="#19485F"/>
<path d="M144.389 203.183H84.4877V207.707H144.389C144.988 207.707 145.561 207.468 145.985 207.044C146.408 206.62 146.645 206.045 146.645 205.445C146.645 204.845 146.408 204.269 145.985 203.845C145.561 203.421 144.988 203.183 144.389 203.183Z" fill="white"/>
<path d="M294.596 167.429C296.55 162.394 303.784 160.736 307.787 164.233C310.176 166.321 311.957 169.187 315.116 170.212C318.525 171.317 321.758 169.492 324.67 167.911C326.17 166.987 327.824 166.345 329.553 166.015C331.118 165.842 332.702 165.978 334.215 166.415C337.577 167.302 340.664 168.996 343.859 170.329C347.293 171.794 350.998 172.514 354.73 172.442C359.17 172.375 363.61 172.199 368.049 172.074C373.019 171.934 377.99 171.794 382.961 171.654C387.861 171.627 392.752 171.207 397.585 170.398C399.452 170.041 398.661 167.185 396.8 167.54C392.38 168.275 387.909 168.655 383.43 168.677C378.873 168.808 374.317 168.936 369.761 169.062C365.126 169.193 360.492 169.333 355.856 169.454C353.793 169.586 351.721 169.477 349.682 169.129C347.954 168.738 346.267 168.183 344.644 167.471C341.345 166.083 338.149 164.321 334.651 163.469C331.318 162.613 327.79 162.997 324.717 164.548C321.898 165.927 318.429 168.779 315.182 167.042C312.36 165.531 310.812 162.375 308.021 160.766C302.179 157.398 294.149 160.447 291.746 166.641C291.055 168.42 293.912 169.19 294.596 167.429Z" fill="#E8EDEF"/>
<path d="M302.173 191.121C304.269 188.008 306.63 184.43 310.456 183.371C311.284 183.105 312.16 183.025 313.022 183.136C313.884 183.248 314.711 183.548 315.445 184.016C316.801 184.931 317.837 186.266 319.135 187.262C321.874 189.364 324.902 189.038 327.848 187.584C330.338 186.355 333.144 183.929 336.096 184.901C338.159 185.58 339.766 187.24 341.763 188.086C342.686 188.547 343.705 188.78 344.736 188.766C345.766 188.752 346.779 188.492 347.689 188.007C348.013 187.801 348.245 187.478 348.336 187.104C348.427 186.731 348.37 186.336 348.176 186.005C347.983 185.673 347.668 185.429 347.299 185.325C346.93 185.221 346.535 185.265 346.197 185.448C344.493 186.447 342.504 185.267 341.047 184.321C339.53 183.145 337.789 182.293 335.931 181.819C332.633 181.26 329.829 183.177 327.06 184.66C325.846 185.47 324.412 185.887 322.954 185.852C321.342 185.635 320.172 184.284 319.06 183.224C317.877 181.969 316.408 181.019 314.779 180.457C312.911 179.956 310.935 180.037 309.114 180.689C304.775 182.179 302.081 185.972 299.621 189.625C298.553 191.21 301.113 192.695 302.173 191.121Z" fill="#E8EDEF"/>
<path d="M265.434 158.017C264.958 158.269 264.417 158.371 263.881 158.309C263.346 158.248 262.842 158.025 262.435 157.672C262.028 157.318 261.736 156.849 261.599 156.327C261.462 155.805 261.485 155.253 261.666 154.744C262.526 152.561 265.654 153.066 266.839 154.601C268.53 156.792 267.749 159.829 266.2 161.843C264.282 164.339 261.328 165.756 258.583 167.129C258.338 167.28 258.141 167.499 258.017 167.759C257.893 168.02 257.847 168.311 257.885 168.597C257.922 168.884 258.041 169.153 258.228 169.373C258.414 169.593 258.66 169.754 258.936 169.837L269.79 172.199C271.644 172.602 272.436 169.746 270.575 169.341L259.722 166.979L260.075 169.687C263.161 168.144 266.304 166.493 268.466 163.713C269.495 162.506 270.2 161.056 270.514 159.5C270.828 157.944 270.74 156.333 270.26 154.82C269.79 153.392 268.843 152.17 267.579 151.361C266.314 150.553 264.81 150.207 263.32 150.382C262.576 150.469 261.857 150.709 261.211 151.089C260.564 151.47 260.004 151.981 259.566 152.59C259.128 153.2 258.821 153.894 258.665 154.629C258.51 155.364 258.509 156.124 258.663 156.859C259.388 160.646 263.672 162.209 266.926 160.576C268.627 159.723 267.132 157.165 265.434 158.017Z" fill="#E8EDEF"/>
<path d="M275.655 173.204C276.743 173.204 277.625 172.32 277.625 171.229C277.625 170.137 276.743 169.253 275.655 169.253C274.566 169.253 273.684 170.137 273.684 171.229C273.684 172.32 274.566 173.204 275.655 173.204Z" fill="#F2F2F2"/>
<path d="M323.793 203.572H258.621C258.024 203.572 257.451 203.81 257.029 204.233C256.607 204.657 256.37 205.231 256.37 205.829C256.37 206.428 256.607 207.002 257.029 207.425C257.451 207.849 258.024 208.087 258.621 208.087H323.793C324.39 208.087 324.963 207.849 325.385 207.425C325.807 207.002 326.045 206.428 326.045 205.829C326.045 205.231 325.807 204.657 325.385 204.233C324.963 203.81 324.39 203.572 323.793 203.572Z" fill="#E8EDEF"/>
<path d="M276.214 250.019H195.984C195.723 250.019 195.472 249.915 195.288 249.729C195.103 249.544 194.999 249.293 194.999 249.031C194.999 248.769 195.103 248.518 195.288 248.332C195.472 248.147 195.723 248.043 195.984 248.043H276.214C276.475 248.043 276.726 248.147 276.911 248.332C277.095 248.518 277.199 248.769 277.199 249.031C277.199 249.293 277.095 249.544 276.911 249.729C276.726 249.915 276.475 250.019 276.214 250.019Z" fill="#0E2834"/>
<path d="M190.416 262.86C195.857 262.86 200.268 258.437 200.268 252.982C200.268 247.526 195.857 243.104 190.416 243.104C184.975 243.104 180.564 247.526 180.564 252.982C180.564 258.437 184.975 262.86 190.416 262.86Z" fill="#19485F"/>
<path d="M127.493 109.311C125.719 111.85 122.833 113.322 120.054 114.705C110.931 119.249 101.805 123.789 92.6749 128.327L93.1675 128.919L93.5123 129.344L93.9951 129.917C91.4827 133.295 88.9704 136.67 86.4581 140.042C85.798 140.921 85.1478 141.81 84.4877 142.689V87.6288C85.1478 87.3621 85.798 87.0954 86.4581 86.8385C92.734 84.3097 99.0066 81.7875 105.276 79.2719C108.537 77.968 112.005 76.6344 115.453 77.237C122.399 78.4421 125.63 86.3743 127.64 93.1507C129.227 98.5046 130.685 104.728 127.493 109.311Z" fill="white"/>
<path d="M94.5961 130.361C91.8867 134.006 89.174 137.654 86.4581 141.306C85.798 142.185 85.1478 143.074 84.4877 143.953V141.434C85.1478 140.555 85.8079 139.666 86.4581 138.787C88.7734 135.685 91.0821 132.584 93.3842 129.482C93.4217 129.431 93.4646 129.385 93.5123 129.344C94.1231 128.83 95.1379 129.63 94.5961 130.361Z" fill="#CCCCCC"/>
<path d="M128.685 108.797C127.167 111.563 124.468 113.272 121.749 114.685C118.645 116.295 115.483 117.816 112.35 119.377C105.946 122.557 99.5517 125.738 93.1675 128.919C93.1084 128.949 93.0394 128.978 92.9803 129.008C92.1133 129.442 91.2266 126.637 92.1822 125.284C95.9754 119.91 108.852 119.446 114.862 116.453C116.379 115.692 117.897 114.941 119.424 114.181C120.822 113.527 122.18 112.791 123.493 111.978C125.864 110.587 127.595 108.316 128.31 105.656C128.802 103.161 128.745 100.589 128.143 98.1191C127.591 95.4421 126.85 92.8079 125.926 90.2363C124.192 85.317 121.384 79.321 115.788 78.0566C113.148 77.4639 110.448 78.1455 107.965 79.0345C105.069 80.0816 102.222 81.3065 99.3645 82.4524C95.0591 84.181 90.757 85.9097 86.4581 87.6384C85.798 87.9051 85.1478 88.1619 84.4877 88.4286V86.8185C85.1478 86.5518 85.798 86.2851 86.4581 86.0183C91.9359 83.8254 97.4171 81.6259 102.901 79.4197C105.6 78.1775 108.42 77.2176 111.315 76.5551C114.079 76.0136 116.944 76.5019 119.374 77.9281C121.802 79.5513 123.757 81.7907 125.039 84.4181C126.445 87.1633 127.564 90.0465 128.379 93.0219C129.857 98.0202 131.355 103.927 128.685 108.797Z" fill="#CCCCCC"/>
<path d="M92.9532 96.4313C92.9452 96.4499 92.9384 96.4686 92.9305 96.4872C91.5347 95.9046 89.9667 95.8946 88.5636 96.4591C87.1606 97.0237 86.0345 98.1178 85.4277 99.5061C84.819 100.899 84.7821 102.477 85.3248 103.897C85.8676 105.318 86.9464 106.467 88.3278 107.096L88.327 107.097L88.398 107.129L98.8998 111.742L103.532 101.141L103.502 101.128C103.51 101.11 103.518 101.093 103.526 101.076C104.14 99.6699 104.172 98.0771 103.615 96.6476C103.058 95.2181 101.958 94.069 100.556 93.4532C99.8614 93.1482 99.1141 92.9834 98.3564 92.968C97.5986 92.9526 96.8452 93.087 96.1393 93.3636C95.4333 93.6401 94.7886 94.0534 94.2419 94.5797C93.6953 95.1061 93.2574 95.7353 92.9532 96.4313Z" fill="#19485F"/>
<path d="M515.512 298.131C514.882 296.788 514.232 295.424 513.542 294.051C511.069 289.043 508.261 283.808 505.276 278.553C497.069 264.032 487.542 249.313 480.044 238.724V238.714C477.02 234.437 474.32 230.851 472.172 228.204C470.84 226.559 469.196 225.195 467.335 224.19C465.474 223.185 463.433 222.56 461.33 222.351C459.226 222.142 457.103 222.352 455.081 222.97C453.059 223.588 451.18 224.601 449.551 225.951C447.922 227.302 446.575 228.962 445.59 230.837C444.604 232.711 443.999 234.763 443.808 236.874C443.618 238.984 443.846 241.111 444.48 243.133C445.114 245.155 446.142 247.03 447.502 248.652L471.808 285.665L483.246 303.09L492.567 317.294L460.586 332.082L455.355 334.502L439.936 341.634L439.847 341.674C439.818 341.654 439.778 341.634 439.749 341.614C438.989 341.149 438.191 340.75 437.365 340.419C435.326 339.612 433.14 339.245 430.951 339.342C429.331 339.41 427.731 339.733 426.212 340.301C423.665 341.243 421.407 342.835 419.661 344.919C417.914 347.003 416.739 349.506 416.251 352.184C416.182 352.5 416.143 352.826 416.103 353.162C416.095 353.211 416.092 353.26 416.094 353.31H416.084C415.749 356.482 416.384 359.68 417.904 362.482C419.425 365.283 421.758 367.555 424.596 368.997C424.793 369.095 424.99 369.194 425.197 369.283C426.181 369.734 427.212 370.075 428.271 370.3C429.593 370.591 430.948 370.707 432.3 370.646C433.558 370.591 434.805 370.385 436.015 370.034H436.025C436.717 369.829 437.395 369.578 438.054 369.283C440.215 368.298 442.126 366.834 443.641 365.001C445.157 363.169 446.238 361.016 446.803 358.704C447.433 358.625 448.143 358.526 448.921 358.417C450.517 358.19 452.409 357.903 454.547 357.558C455.394 357.419 456.281 357.271 457.197 357.113C473.217 354.347 499.394 348.46 513.542 338.048C514.232 337.535 514.892 337.021 515.512 336.498V298.131Z" fill="#CEA6B2"/>
<path d="M488.172 0H111.828C104.579 0.00868171 97.6302 2.89949 92.5049 8.03831C87.3795 13.1771 84.4963 20.1444 84.4877 27.4117V425.598C84.4967 432.865 87.3804 439.83 92.5059 444.968C97.6315 450.105 104.58 452.994 111.828 453H488.172C495.42 452.994 502.368 450.105 507.494 444.968C512.62 439.831 515.503 432.865 515.512 425.598V27.4117C515.504 20.1444 512.62 13.1771 507.495 8.03831C502.37 2.89949 495.421 0.00869215 488.172 0ZM513.542 425.598C513.533 432.34 510.857 438.804 506.101 443.571C501.345 448.337 494.897 451.018 488.172 451.024H111.828C105.103 451.018 98.6554 448.337 93.8994 443.571C89.1434 438.804 86.4673 432.34 86.4581 425.598V27.4117C86.4652 20.6679 89.1404 14.2022 93.8965 9.43358C98.6527 4.66493 105.101 1.98277 111.828 1.97562H488.172C494.899 1.98277 501.347 4.66493 506.103 9.43358C510.86 14.2022 513.535 20.6679 513.542 27.4117V425.598ZM84.4877 64.0496V388.457H86.4581V64.0496H84.4877Z" fill="#3F3D56"/>
<path d="M120.3 378.332C129.006 378.332 136.064 371.255 136.064 362.527C136.064 353.798 129.006 346.722 120.3 346.722C111.595 346.722 104.537 353.798 104.537 362.527C104.537 371.255 111.595 378.332 120.3 378.332Z" fill="#19485F"/>
<path d="M117.908 371.043C117.771 371.042 117.635 371.015 117.508 370.961C117.319 370.885 117.157 370.753 117.044 370.584C116.931 370.414 116.872 370.213 116.874 370.009V355.46C116.874 355.257 116.934 355.057 117.047 354.888C117.16 354.718 117.32 354.586 117.508 354.508C117.696 354.43 117.903 354.41 118.102 354.449C118.302 354.489 118.485 354.587 118.629 354.732L125.884 362.006C126.076 362.199 126.185 362.462 126.185 362.735C126.185 363.008 126.076 363.27 125.884 363.464L118.629 370.738C118.535 370.834 118.423 370.91 118.299 370.963C118.175 371.015 118.043 371.042 117.908 371.043Z" fill="white"/>
<path d="M441.58 127.474C451.374 127.474 459.314 119.514 459.314 109.694C459.314 99.8737 451.374 91.9131 441.58 91.9131C431.785 91.9131 423.846 99.8737 423.846 109.694C423.846 119.514 431.785 127.474 441.58 127.474Z" fill="#19485F"/>
<path d="M441.724 135.452C433.256 130.517 430.934 119.25 436.146 110.936C437.385 108.959 439.001 107.246 440.9 105.895C442.8 104.544 444.946 103.582 447.217 103.062C449.487 102.543 451.837 102.477 454.133 102.869C456.429 103.26 458.626 104.101 460.598 105.344C468.89 110.569 462.664 120.692 466.175 129.86C471.143 142.828 453.143 142.107 441.724 135.452Z" fill="#19485F"/>
<path d="M400.548 129.949C399.931 131.389 380.928 131.235 380.058 132.517C373.348 142.417 397.537 184.536 390.827 194.449L389.892 195.566C392.081 194.554 394.184 193.365 396.18 192.009C396.359 187.952 396.538 183.882 396.73 179.824C398.74 182.402 400.363 185.262 401.545 188.311C403.108 187.207 404.389 185.16 411.086 181.134C413.797 178.148 416.922 175.568 420.366 173.475L400.548 129.949Z" fill="#19485F"/>
<path d="M409.968 176.659C427.339 176.659 441.421 162.54 441.421 145.124C441.421 127.707 427.339 113.588 409.968 113.588C392.597 113.588 378.515 127.707 378.515 145.124C378.515 162.54 392.597 176.659 409.968 176.659Z" fill="#CEA6B2"/>
<path d="M433.856 190.552C431.295 188.406 429.512 185.473 428.785 182.206C428.203 186.172 428.355 190.211 429.233 194.122C427.53 195.406 425.878 196.625 424.316 197.73C423.133 194.68 421.511 191.821 419.501 189.243C419.309 193.3 419.129 197.37 418.95 201.427C416.954 202.783 414.851 203.973 412.662 204.984L413.597 203.867C420.307 193.955 402.942 175.71 409.653 165.81C411.535 163.037 403.032 141.119 396.552 140.13C390.789 139.257 391.033 140.927 385.449 142.146C384.869 139.722 383.969 137.386 382.773 135.2C383.091 137.635 383.018 140.107 382.555 142.519C380.57 142.596 379.008 141.328 376.895 141.004C363.41 138.936 364.78 124.312 368.532 119.677C372.297 115.054 384.796 113.668 390.559 112.165C391.084 111.652 392.275 111.973 392.8 111.485C403.844 101.351 418.615 99.6729 431.907 104.164C446.082 108.954 454.92 118.225 459.456 132.516L460.757 143.953C461.924 147.631 460.456 164.741 459.456 168.468C455.569 182.954 447.292 175.722 433.856 190.552Z" fill="#19485F"/>
</g>
<defs>
<clipPath id="clip0_366_1873">
<rect width="600" height="453" fill="white"/>
</clipPath>
</defs>
</svg>
