<?xml version="1.0" encoding="UTF-8" standalone="no"?>
<!-- Created with Inkscape (http://www.inkscape.org/) -->

<svg
   width="102.85346mm"
   height="25.188887mm"
   viewBox="0 0 102.85346 25.188887"
   version="1.1"
   id="svg1"
   xml:space="preserve"
   xmlns="http://www.w3.org/2000/svg"
   xmlns:svg="http://www.w3.org/2000/svg"><defs
     id="defs1" /><g
     id="layer1"
     style="display:inline"
     transform="translate(-234.89954,-222.2584)"><g
       id="g6"
       transform="matrix(1.274566,0,0,1.274566,10.798279,110.34172)"
       style="display:inline;stroke-width:0.784584"><g
         id="g5"
         transform="matrix(0.54258684,0,0,0.54258684,167.42262,41.449436)"
         style="stroke-width:1.446"><path
           d="m 27.724456,93.567105 -0.28756,0.862148 -0.66585,1.99594 -2.92419,8.766127 -0.0375,0.11251 -0.84609,2.53654 c -0.0626,0.31973 -0.16615,0.6301 -0.30804,0.92341 -0.49575,1.004 -1.40967,1.73804 -2.49719,2.00565 -0.12682,0.0259 -0.25488,0.0452 -0.38366,0.058 v 0.57362 h 2.00112 0.87465 2.22531 v -0.59827 c -0.0707,-0.007 -0.141,-0.0177 -0.21029,-0.0333 -0.73308,-0.1596 -1.26395,-0.79684 -1.28835,-1.54649 l 0.34615,-1.03786 0.78796,-2.36217 h 5.56173 l 0.89063,2.53504 c 0.0814,0.15132 0.13866,0.31441 0.16979,0.48337 0.0198,0.10022 0.0303,0.20206 0.0314,0.30422 -0.007,0.86807 -0.68415,1.58301 -1.5508,1.63704 -0.0341,0.007 -0.0685,0.0119 -0.10298,0.0163 -0.003,-5.8e-4 -0.007,-8.7e-4 -0.01,-0.001 v 0.6168 h 2.5362 2.9783 1.73553 v -0.39148 -0.004 c -0.16191,-0.01 -0.32225,-0.0329 -0.48021,-0.0671 -0.18551,-0.0402 -0.36762,-0.0958 -0.54344,-0.16899 -0.16744,-0.0684 -0.32478,-0.15557 -0.47693,-0.25088 -0.38696,-0.29107 -0.71561,-0.70018 -0.96865,-1.20581 l -0.0735,-0.20918 -0.35422,-1.00858 -0.0897,-0.25506 -4.71608,-13.423818 -0.30295,-0.862148 h -0.14588 z m -0.50473,4.135175 2.63111,7.48904 h -5.12919 z"
           style="opacity:0.99;fill:#D9E0A4;fill-opacity:1;stroke:none;stroke-width:0.382584;stroke-opacity:1"
           id="path2" /><path
           d="m 37.030776,87.282011 h -2.404398 v 16.064139 1.34875 1.0697 0.2558 c 0.02848,1.35304 0.405992,2.52945 1.058296,3.29644 0.05258,0.0585 0.10663,0.11396 0.162236,0.16692 0.07494,0.0716 0.152668,0.138 0.232554,0.19895 0.265725,0.22461 0.559336,0.386 0.872455,0.47956 0.164339,0.0366 0.332484,0.055 0.503783,0.0548 0.04082,0.0709 0.08203,0.14161 0.124062,0.21135 1.227551,2.0359 3.186188,3.35636 5.395957,3.35639 2.643547,-0.009 5.037999,-1.93312 6.121748,-4.91857 -0.4247,-0.20789 -0.797985,-0.53411 -1.086424,-0.94929 h -0.908116 c -0.664639,2.74481 -2.205401,4.53253 -3.914744,4.54236 -1.442705,-6e-5 -2.71665,-1.25094 -3.488312,-3.16209 -0.01643,-0.0406 -0.03429,-0.0797 -0.05023,-0.12092 -0.0029,-0.008 -0.0056,-0.016 -0.0086,-0.0238 -0.453004,-1.18051 -0.717743,-2.59903 -0.717753,-4.12585 -1e-5,-2.00329 0.459104,-3.81377 1.198934,-5.149552 0.08281,-0.1495 0.167687,-0.295115 0.257165,-0.432532 0.0039,-0.0061 0.0076,-0.01311 0.01105,-0.01912 0.749073,-1.137253 1.725754,-1.831367 2.797179,-1.831413 1.062385,5.78e-4 2.086402,0.692472 2.871515,1.939933 0.299151,0.475254 0.55782,1.022294 0.768483,1.624704 h 0.71022 V 99.321059 95.547646 H 47.00798 c 0.04277,0.727948 -0.183729,1.333318 -0.62885,1.682068 -0.09868,0.06667 -0.205667,0.120533 -0.31995,0.161747 -0.337232,0.146481 -0.737974,0.170563 -1.164277,0.06925 -0.145804,-0.03395 -0.293568,-0.08251 -0.441501,-0.144694 -0.485098,-0.135513 -0.980914,-0.203784 -1.478201,-0.204122 -1.654709,1.4e-5 -3.167876,0.741721 -4.340171,1.967838 -0.03237,0.03389 -0.06232,0.07186 -0.09343,0.107487 -0.06094,0.0698 -0.121939,0.139207 -0.182327,0.209807 -0.529623,0.619253 -0.983086,1.336343 -1.328521,2.139403 v -1.52497 -0.08424 -0.04858 z"
           style="opacity:0.99;fill:#D9E0A4;fill-opacity:1;stroke:none;stroke-width:0.382584;stroke-opacity:1"
           id="path3" /><path
           d="m 33.234916,85.439302 c -1.44873,0.01911 -2.89018,0.208945 -4.29445,0.565551 -5.0065,1.203502 -9.28119,4.445908 -11.78885,8.941988 0.22329,0.407781 0.41294,0.833097 0.56705,1.271707 0.27052,0.773393 0.42842,1.581654 0.46886,2.399971 1.17651,-3.256662 3.24709,-6.116033 5.97439,-8.250329 3.23151,-2.541824 7.22045,-3.930396 11.33225,-3.944814 0.14028,0.0023 0.28054,0.0063 0.42073,0.0118 0.34613,0.0079 0.69197,0.02563 1.03711,0.05304 v -0.66342 c -1.22276,-0.254067 -2.4682,-0.383233 -3.71709,-0.385502 z"
           style="display:inline;opacity:1;fill:#ffffff;fill-opacity:1;stroke:none;stroke-width:0.383189;stroke-dasharray:none"
           id="path4" /><path
           d="m 38.352746,87.406853 v 2.826262 c 0.26179,0.01398 0.52316,0.036 0.78377,0.06604 6.94152,0.804781 12.20194,7.075536 12.20271,14.546405 2e-5,8.08162 -6.12299,14.63323 -13.67594,14.63321 -0.32779,-0.0149 -0.65498,-0.0425 -0.98091,-0.0826 v -1.01829 -1.75836 -4.32688 h -2.47432 v 4.98417 c -0.91284,0.17131 -1.83898,0.26226 -2.76771,0.27179 -0.17375,-2.9e-4 -0.34588,-0.008 -0.51833,-0.0139 -1.65093,-0.0571 -3.24098,-0.36259 -4.72983,-0.88784 -5.89807,-2.08079 -10.2222,-7.54752 -10.57643,-14.12579 -0.0721,0.54319 -0.11516,1.08986 -0.12898,1.63763 10e-6,8.29817 6.56609,15.06017 14.78703,15.3845 0.20503,0.008 0.41026,0.0155 0.61727,0.0155 1.11715,-0.0151 2.22938,-0.15169 3.31698,-0.40732 v 1.74865 0.96241 h 2.47432 v -0.60186 c 0.40218,0.0461 0.80589,0.0779 1.21033,0.0952 9.38065,6e-5 16.98535,-7.60254 16.9853,-16.98059 -0.003,-8.89338 -6.86952,-16.277985 -15.74149,-16.929184 -0.26092,-0.01908 -0.52225,-0.03213 -0.78377,-0.03915 z"
           style="display:inline;opacity:0.99;fill:#ffffff;fill-opacity:1;stroke:none;stroke-width:0.382584"
           id="path5" /></g><text
         xml:space="preserve"
         style="font-style:normal;font-variant:normal;font-weight:normal;font-stretch:normal;font-size:5.7302px;font-family:'Source Serif Variable';-inkscape-font-specification:'Source Serif Variable, @wght=695';font-variant-ligatures:normal;font-variant-caps:normal;font-variant-numeric:normal;font-variant-east-asian:normal;font-variation-settings:'wght' 695;opacity:1;fill:#ffffff;fill-opacity:1;stroke:none;stroke-width:0.207913;stroke-dasharray:none;stroke-opacity:1"
         x="200.14847"
         y="95.987167"
         id="text6"><tspan
           id="tspan5"
           style="font-style:normal;font-variant:normal;font-weight:normal;font-stretch:normal;font-size:5.7302px;font-family:'Source Serif Variable';-inkscape-font-specification:'Source Serif Variable, @wght=695';font-variant-ligatures:normal;font-variant-caps:normal;font-variant-numeric:normal;font-variant-east-asian:normal;font-variation-settings:'wght' 695;fill:#ffffff;fill-opacity:1;stroke-width:0.207913"
           x="200.14847"
           y="95.987167">ICJ LEX &amp; CARRANZA</tspan><tspan
           style="font-style:normal;font-variant:normal;font-weight:normal;font-stretch:normal;font-size:5.7302px;font-family:'Source Serif Variable';-inkscape-font-specification:'Source Serif Variable, @wght=695';font-variant-ligatures:normal;font-variant-caps:normal;font-variant-numeric:normal;font-variant-east-asian:normal;font-variation-settings:'wght' 695;fill:#ffffff;fill-opacity:1;stroke-width:0.207913"
           x="200.14847"
           y="103.14992"
           id="tspan6">CONSULTORES</tspan></text></g></g></svg>
