<svg width="600" height="514" viewBox="0 0 600 514" fill="none" xmlns="http://www.w3.org/2000/svg">
<g clip-path="url(#clip0_369_2289)">
<path d="M176.328 508.637C185.96 500.492 191.811 487.625 190.276 475.1C188.742 462.574 179.239 451.059 166.912 448.399C154.586 445.739 140.534 453.102 136.79 465.153C134.73 441.92 132.355 417.714 120.012 397.929C108.836 380.015 89.4793 367.196 68.5005 364.903C47.5218 362.609 25.4338 371.271 12.3501 387.841C-0.733541 404.412 -3.93702 428.502 5.22645 447.527C11.9769 461.541 24.4135 471.971 37.444 480.456C79.5502 507.644 130.051 518.7 179.655 511.591" fill="#E8EDEF"/>
<path d="M33.0956 371.751C50.4057 385.861 66.2858 401.641 80.5064 418.865C102.762 445.727 120.771 475.844 133.906 508.168C134.868 510.526 131.042 511.552 130.091 509.221C121.737 488.784 111.403 469.216 99.235 450.797C80.2607 422.024 57.0146 396.313 30.2977 374.551C28.3223 372.941 31.1365 370.154 33.0956 371.751Z" fill="white"/>
<path d="M182.981 508.637C173.349 500.492 167.499 487.625 169.033 475.1C170.567 462.574 180.07 451.059 192.397 448.399C204.724 445.739 218.775 453.102 222.519 465.153C224.58 441.92 226.954 417.714 239.297 397.929C250.473 380.015 269.83 367.196 290.809 364.903C311.788 362.609 333.876 371.271 346.959 387.841C360.043 404.412 363.247 428.502 354.083 447.527C347.333 461.541 334.896 471.971 321.866 480.456C279.759 507.644 229.258 518.7 179.655 511.591" fill="#E8EDEF"/>
<path d="M326.214 371.751C308.904 385.861 293.024 401.641 278.803 418.865C256.548 445.727 238.539 475.844 225.403 508.168C224.442 510.526 228.268 511.552 229.219 509.221C250.711 456.688 285.021 410.387 329.012 374.551C330.987 372.941 328.173 370.154 326.214 371.751Z" fill="white"/>
<path d="M211.563 231.222C229.382 231.222 243.827 216.766 243.827 198.934C243.827 181.102 229.382 166.646 211.563 166.646C193.745 166.646 179.3 181.102 179.3 198.934C179.3 216.766 193.745 231.222 211.563 231.222Z" fill="#E8EDEF"/>
<path d="M112.085 87.6328H334.373V99.8035H140.462C129.061 99.8035 117.772 102.051 107.238 106.417C96.7049 110.783 87.134 117.183 79.0721 125.251C71.0102 133.319 64.6152 142.897 60.2521 153.438C55.889 163.979 53.6434 175.277 53.6434 186.687V324.961H29.3202C28.2451 324.96 27.214 324.533 26.4537 323.772C25.6935 323.011 25.2664 321.98 25.2664 320.904V174.516C25.2663 163.107 27.512 151.809 31.8751 141.267C36.2381 130.726 42.6332 121.148 50.6951 113.08C58.757 105.012 68.3278 98.6127 78.8612 94.2464C89.3946 89.8801 100.684 87.6328 112.085 87.6328Z" fill="#E8EDEF"/>
<path d="M154.842 509.313V324.439H208.961V509.313C208.96 510.555 208.466 511.747 207.588 512.625C206.71 513.504 205.52 513.998 204.278 514H159.525C158.283 513.998 157.093 513.504 156.215 512.625C155.337 511.747 154.843 510.555 154.842 509.313Z" fill="#658494"/>
<path d="M13.8179 320.794V170.464C13.8449 146.532 23.3565 123.589 40.2661 106.666C57.1757 89.7441 80.1023 80.2253 104.016 80.1982H333.333V326.002H19.0217C17.642 326 16.3194 325.451 15.3438 324.475C14.3682 323.498 13.8194 322.175 13.8179 320.794ZM331.251 82.2813H104.016C80.6541 82.3078 58.2567 91.607 41.7373 108.139C25.218 124.67 15.9258 147.085 15.8994 170.464V320.794C15.9003 321.622 16.2295 322.417 16.8149 323.002C17.4002 323.588 18.1939 323.918 19.0217 323.919H331.251V82.2813Z" fill="#658494"/>
<path d="M211.563 215.599C206.597 215.593 201.835 213.616 198.323 210.102C194.811 206.587 192.835 201.822 192.83 196.851V62.4924C192.829 61.664 192.499 60.8697 191.914 60.284C191.329 59.6982 190.535 59.3687 189.707 59.3678H116.854C115.474 59.3662 114.151 58.817 113.176 57.8407C112.2 56.8644 111.651 55.5408 111.65 54.1601V5.2077C111.651 3.82702 112.2 2.50335 113.176 1.52706C114.151 0.550773 115.474 0.00159881 116.854 0H225.093C226.473 0.00157955 227.796 0.550753 228.771 1.52704C229.747 2.50334 230.296 3.82702 230.297 5.2077V196.851C230.292 201.822 228.316 206.587 224.804 210.102C221.292 213.616 216.53 215.593 211.563 215.599Z" fill="#19485F"/>
<path d="M341.659 78.1154C357.359 78.0824 372.43 84.2926 383.555 95.3796C394.681 106.467 400.949 121.522 400.982 137.235V308.37H517.548C522.231 308.36 526.725 310.212 530.043 313.519C533.361 316.825 535.231 321.316 535.241 326.002H282.335V137.235C282.368 121.522 288.637 106.467 299.762 95.3796C310.887 84.2926 325.958 78.0824 341.659 78.1154Z" fill="#658494"/>
<path d="M327.423 175.57L339.707 226.351L580 168.138L567.716 117.357C567.568 116.736 567.265 116.162 566.836 115.69C566.407 115.217 565.866 114.861 565.262 114.654C564.817 114.497 564.346 114.426 563.874 114.445L424.974 42.4722C424.16 42.0563 423.225 41.9452 422.336 42.159C421.448 42.3727 420.665 42.8973 420.128 43.638L353.187 137.058L327.95 172.285C327.904 172.347 327.872 172.418 327.856 172.493C327.84 172.568 327.841 172.646 327.858 172.721C327.344 173.576 327.188 174.6 327.423 175.57Z" fill="white"/>
<path d="M327.857 172.721C327.869 172.787 327.894 172.85 327.93 172.907C327.967 172.963 328.014 173.012 328.069 173.05C328.134 173.095 328.208 173.126 328.285 173.141C328.363 173.156 328.442 173.156 328.52 173.139C328.645 173.106 328.755 173.029 328.831 172.923L328.917 172.803L330.231 170.964L354.095 137.672L421.017 44.2739C421.399 43.7446 421.958 43.3699 422.592 43.2177C423.226 43.0655 423.894 43.146 424.474 43.4445L562.298 114.859L563.535 115.502C563.585 115.523 563.636 115.541 563.688 115.556C563.781 115.539 563.876 115.53 563.971 115.529C564.1 115.485 564.208 115.394 564.272 115.274C564.306 115.21 564.327 115.141 564.333 115.069C564.34 114.998 564.333 114.926 564.311 114.857C564.29 114.789 564.256 114.725 564.21 114.67C564.164 114.615 564.108 114.569 564.045 114.536L563.874 114.445L424.974 42.4722C424.16 42.0563 423.225 41.9452 422.336 42.159C421.447 42.3727 420.664 42.8973 420.128 43.638L353.186 137.058L327.95 172.285C327.904 172.347 327.872 172.418 327.856 172.493C327.84 172.568 327.841 172.646 327.857 172.721Z" fill="#658494"/>
<path d="M400.025 177.899L405.374 178.493L445.071 182.894L471.388 185.81L472.942 185.983L505.781 160.314L507.039 159.331L514.795 153.269L542.389 131.702L542.555 130.188L552.37 41.5379C552.504 40.3172 552.148 39.0932 551.382 38.1343C550.615 37.1754 549.5 36.5597 548.28 36.4224L417.294 21.9015C416.074 21.7682 414.852 22.124 413.894 22.891C412.935 23.6581 412.32 24.7738 412.182 25.9939L405.261 88.5254L401.421 123.194L397.987 154.209L396.395 168.613L395.93 172.785C395.798 174.006 396.154 175.23 396.922 176.189C397.689 177.147 398.805 177.763 400.025 177.899Z" fill="#E8EDEF"/>
<path d="M436.02 100.194L492.759 106.483L512.881 108.713C513.769 108.811 514.668 108.734 515.526 108.484C516.385 108.235 517.186 107.819 517.883 107.26C518.581 106.701 519.162 106.01 519.593 105.226C520.024 104.443 520.296 103.582 520.395 102.693C520.493 101.804 520.415 100.904 520.166 100.045C519.917 99.1857 519.502 98.3841 518.943 97.6859C518.384 96.9876 517.694 96.4063 516.911 95.9751C516.128 95.5439 515.267 95.2712 514.379 95.1728L489.352 92.3989L437.522 86.6477C435.728 86.4493 433.928 86.9721 432.519 88.1014C431.109 89.2306 430.206 90.8737 430.006 92.6695C429.807 94.4652 430.329 96.2667 431.456 97.6777C432.584 99.0888 434.225 99.9939 436.02 100.194Z" fill="white"/>
<path d="M432.789 125.311C432.936 125.338 433.082 125.364 433.231 125.378L499.096 132.68L510.093 133.902C511.888 134.101 513.688 133.578 515.098 132.448C516.507 131.318 517.411 129.675 517.609 127.878C517.808 126.082 517.285 124.281 516.156 122.87C515.028 121.459 513.385 120.555 511.59 120.357L495.689 118.596L443.515 112.811L434.735 111.837C432.979 111.641 431.216 112.136 429.818 113.217C428.42 114.299 427.497 115.882 427.245 117.632C426.992 119.382 427.429 121.161 428.464 122.594C429.499 124.028 431.05 125.002 432.789 125.311Z" fill="white"/>
<path d="M425.335 147.583C425.875 148.48 426.614 149.24 427.495 149.805C428.376 150.369 429.375 150.723 430.414 150.838L457.41 153.831L505.491 159.161L505.501 159.159L507.039 159.33L514.795 153.268C514.843 152.808 514.843 152.343 514.796 151.883C514.632 150.337 513.946 148.892 512.851 147.789C511.756 146.686 510.317 145.991 508.773 145.817L502.094 145.074L475.6 142.14L456.536 140.024L431.911 137.293C430.649 137.154 429.374 137.37 428.228 137.918C427.082 138.465 426.113 139.323 425.428 140.393C424.744 141.464 424.373 142.704 424.357 143.975C424.34 145.246 424.679 146.495 425.335 147.583Z" fill="white"/>
<path d="M463.253 69.4911L477.37 71.0559L483.606 71.7489L493.025 72.7921C494.82 72.9908 496.62 72.4678 498.03 71.3382C499.439 70.2085 500.343 68.5648 500.541 66.7686C500.74 64.9724 500.217 63.1708 499.088 61.7602C497.959 60.3496 496.317 59.4455 494.522 59.2468L464.757 55.9499C462.963 55.7503 461.163 56.2722 459.753 57.4009C458.343 58.5295 457.439 60.1723 457.239 61.968C457.04 63.7637 457.562 65.5651 458.689 66.9759C459.817 68.3868 461.459 69.2916 463.253 69.4911Z" fill="white"/>
<path d="M347.817 107.207L365.028 178.359L393.754 183.825L420.327 188.888L448.838 194.317L457.947 196.052C458.481 196.153 459.029 196.139 459.557 196.011C460.084 195.883 460.579 195.644 461.007 195.311L468.315 189.598L472.942 185.982L505.781 160.314L484.901 73.9974C484.695 73.1387 484.245 72.3578 483.606 71.7486C483.046 71.2097 482.358 70.8205 481.608 70.6172C480.858 70.4138 480.069 70.4028 479.313 70.5851L351.226 101.615C350.034 101.905 349.005 102.657 348.365 103.705C347.726 104.754 347.529 106.013 347.817 107.207Z" fill="#19485F"/>
<path d="M387.283 163.811C387.709 165.567 388.814 167.081 390.354 168.022C391.895 168.962 393.746 169.253 395.5 168.829L470.659 150.622C472.412 150.194 473.924 149.089 474.864 147.547C475.804 146.005 476.095 144.154 475.673 142.398C475.654 142.311 475.629 142.225 475.6 142.141C475.12 140.448 474.004 139.007 472.485 138.119C470.967 137.232 469.164 136.967 467.455 137.38L392.297 155.588C390.543 156.014 389.03 157.12 388.09 158.661C387.15 160.203 386.86 162.055 387.283 163.811Z" fill="white"/>
<path d="M393.754 183.825L420.327 188.888L476.617 175.252C478.371 174.826 479.885 173.721 480.826 172.179C481.766 170.637 482.056 168.784 481.631 167.028C481.206 165.272 480.102 163.757 478.561 162.816C477.02 161.874 475.168 161.585 473.413 162.01L398.255 180.217C396.684 180.595 395.301 181.523 394.355 182.833C394.127 183.146 393.926 183.478 393.754 183.825Z" fill="white"/>
<path d="M448.837 194.317L457.947 196.052C458.481 196.153 459.029 196.139 459.557 196.011C460.084 195.883 460.578 195.645 461.007 195.311L468.315 189.599L448.837 194.317Z" fill="white"/>
<path d="M402.427 125.658C402.853 127.414 403.958 128.928 405.498 129.869C407.039 130.809 408.89 131.1 410.644 130.677L439.755 123.624C441.508 123.197 443.021 122.091 443.961 120.55C444.901 119.008 445.191 117.156 444.769 115.4C444.543 114.457 444.115 113.574 443.515 112.811C442.71 111.78 441.625 111.003 440.39 110.572C439.156 110.141 437.823 110.076 436.552 110.382L407.441 117.435C405.687 117.86 404.173 118.965 403.232 120.507C402.292 122.05 402.002 123.902 402.427 125.658Z" fill="white"/>
<path d="M420.325 188.888L448.84 194.318L457.947 196.053C458.48 196.153 459.028 196.139 459.555 196.011C460.082 195.883 460.577 195.645 461.005 195.313L468.319 189.599L465.752 190.221L460.334 194.45C460.028 194.688 459.675 194.858 459.299 194.949C458.922 195.04 458.531 195.051 458.15 194.98L451.407 193.696L422.892 188.266L420.325 188.888ZM505.499 159.163L505.777 160.311L507.041 159.327L505.499 159.163ZM420.325 188.888L448.84 194.318L457.947 196.053C458.48 196.153 459.028 196.139 459.555 196.011C460.082 195.883 460.577 195.645 461.005 195.313L468.319 189.599L465.752 190.221L460.334 194.45C460.028 194.688 459.675 194.858 459.299 194.949C458.922 195.04 458.531 195.051 458.15 194.98L451.407 193.696L422.892 188.266L420.325 188.888ZM420.325 188.888L448.84 194.318L457.947 196.053C458.48 196.153 459.028 196.139 459.555 196.011C460.082 195.883 460.577 195.645 461.005 195.313L468.319 189.599L465.752 190.221L460.334 194.45C460.028 194.688 459.675 194.858 459.299 194.949C458.922 195.04 458.531 195.051 458.15 194.98L451.407 193.696L422.892 188.266L420.325 188.888ZM327.423 175.57L359.6 308.585C359.838 309.568 360.457 310.416 361.32 310.943C362.183 311.47 363.219 311.632 364.202 311.395L597.084 254.977C598.066 254.738 598.914 254.119 599.44 253.256C599.967 252.392 600.13 251.355 599.893 250.372L567.716 117.356C567.568 116.735 567.265 116.162 566.836 115.69C566.407 115.217 565.866 114.861 565.262 114.653C564.817 114.497 564.346 114.426 563.874 114.444C563.324 114.46 562.785 114.602 562.298 114.859C562.074 114.966 561.861 115.098 561.666 115.252L542.554 130.187L514.796 151.886L505.497 159.155L505.499 159.163L505.491 159.165L471.39 185.806L465.752 190.221L460.334 194.45C460.028 194.688 459.675 194.858 459.299 194.949C458.922 195.04 458.531 195.051 458.15 194.98L451.407 193.696L422.892 188.266L394.352 182.834L331.842 170.929C331.309 170.823 330.76 170.835 330.232 170.964C329.521 171.138 328.875 171.512 328.371 172.043C328.177 172.251 328.006 172.478 327.858 172.721C327.344 173.576 327.188 174.6 327.423 175.57ZM420.325 188.888L448.84 194.318L457.947 196.053C458.48 196.153 459.028 196.139 459.555 196.011C460.082 195.883 460.577 195.645 461.005 195.313L468.319 189.599L465.752 190.221L460.334 194.45C460.028 194.688 459.675 194.858 459.299 194.949C458.922 195.04 458.531 195.051 458.15 194.98L451.407 193.696L422.892 188.266L420.325 188.888ZM420.325 188.888L448.84 194.318L457.947 196.053C458.48 196.153 459.028 196.139 459.555 196.011C460.082 195.883 460.577 195.645 461.005 195.313L468.319 189.599L465.752 190.221L460.334 194.45C460.028 194.688 459.675 194.858 459.299 194.949C458.922 195.04 458.531 195.051 458.15 194.98L451.407 193.696L422.892 188.266L420.325 188.888ZM420.325 188.888L448.84 194.318L457.947 196.053C458.48 196.153 459.028 196.139 459.555 196.011C460.082 195.883 460.577 195.645 461.005 195.313L468.319 189.599L465.752 190.221L460.334 194.45C460.028 194.688 459.675 194.858 459.299 194.949C458.922 195.04 458.531 195.051 458.15 194.98L451.407 193.696L422.892 188.266L420.325 188.888Z" fill="white"/>
<path d="M420.325 188.888L448.84 194.318L457.947 196.053C458.48 196.153 459.028 196.139 459.555 196.011C460.082 195.883 460.577 195.645 461.005 195.313L468.319 189.599L465.752 190.221L460.334 194.45C460.028 194.688 459.675 194.858 459.299 194.949C458.922 195.04 458.531 195.051 458.15 194.98L451.407 193.696L422.892 188.266L420.325 188.888ZM505.499 159.163L505.777 160.311L507.041 159.327L505.499 159.163ZM420.325 188.888L448.84 194.318L457.947 196.053C458.48 196.153 459.028 196.139 459.555 196.011C460.082 195.883 460.577 195.645 461.005 195.313L468.319 189.599L465.752 190.221L460.334 194.45C460.028 194.688 459.675 194.858 459.299 194.949C458.922 195.04 458.531 195.051 458.15 194.98L451.407 193.696L422.892 188.266L420.325 188.888ZM420.325 188.888L448.84 194.318L457.947 196.053C458.48 196.153 459.028 196.139 459.555 196.011C460.082 195.883 460.577 195.645 461.005 195.313L468.319 189.599L465.752 190.221L460.334 194.45C460.028 194.688 459.675 194.858 459.299 194.949C458.922 195.04 458.531 195.051 458.15 194.98L451.407 193.696L422.892 188.266L420.325 188.888ZM328.918 172.803L329.059 172.909C329.083 172.87 329.124 172.835 329.155 172.795C329.471 172.466 329.862 172.221 330.296 172.082C330.729 171.942 331.19 171.912 331.638 171.995L393.756 183.821L420.325 188.888L448.84 194.318L457.947 196.053C458.48 196.153 459.028 196.139 459.555 196.011C460.082 195.883 460.577 195.645 461.005 195.313L468.319 189.599L465.752 190.221L460.334 194.45C460.028 194.688 459.675 194.858 459.299 194.949C458.922 195.04 458.531 195.051 458.15 194.98L451.407 193.696L422.892 188.266L394.352 182.834L331.842 170.929C331.309 170.823 330.76 170.835 330.232 170.964L328.918 172.803ZM327.423 175.57L359.6 308.585C359.838 309.568 360.457 310.416 361.32 310.943C362.183 311.47 363.219 311.632 364.202 311.395L597.084 254.977C598.066 254.738 598.914 254.119 599.44 253.256C599.967 252.392 600.13 251.355 599.893 250.372L567.716 117.356C567.568 116.735 567.265 116.162 566.836 115.69C566.407 115.217 565.866 114.861 565.262 114.653C564.817 114.497 564.346 114.426 563.874 114.444C563.324 114.46 562.785 114.602 562.298 114.859C562.074 114.966 561.861 115.098 561.666 115.252L542.554 130.187L514.796 151.886L505.497 159.155L505.499 159.163L505.491 159.165L471.39 185.806L465.752 190.221L460.334 194.45C460.028 194.688 459.675 194.858 459.299 194.949C458.922 195.04 458.531 195.051 458.15 194.98L451.407 193.696L422.892 188.266L394.352 182.834L331.842 170.929C331.309 170.823 330.76 170.835 330.232 170.964C329.521 171.138 328.875 171.512 328.371 172.043C328.177 172.251 328.006 172.478 327.858 172.721C327.344 173.576 327.188 174.6 327.423 175.57ZM328.484 175.313C328.39 174.92 328.383 174.512 328.466 174.117C328.55 173.723 328.72 173.351 328.965 173.031C328.987 172.984 329.019 172.942 329.059 172.909C329.083 172.87 329.124 172.835 329.155 172.795C329.471 172.466 329.862 172.221 330.296 172.082C330.729 171.942 331.19 171.912 331.638 171.995L393.756 183.821L420.325 188.888L448.84 194.318L457.947 196.053C458.48 196.153 459.028 196.139 459.555 196.011C460.082 195.883 460.577 195.645 461.005 195.313L468.319 189.599L472.944 185.983L505.777 160.311L507.041 159.327L514.791 153.267L542.391 131.698L562.343 116.104C562.647 115.868 562.997 115.698 563.371 115.607C563.475 115.582 563.581 115.564 563.688 115.555C563.782 115.538 563.876 115.529 563.971 115.528C564.29 115.525 564.607 115.577 564.908 115.681C565.338 115.831 565.724 116.086 566.031 116.423C566.337 116.76 566.554 117.169 566.663 117.611L598.839 250.627C598.924 250.975 598.939 251.337 598.884 251.692C598.829 252.046 598.704 252.386 598.517 252.692C598.331 252.998 598.086 253.265 597.796 253.476C597.506 253.687 597.178 253.839 596.829 253.923L363.947 310.341C363.244 310.51 362.503 310.393 361.887 310.016C361.271 309.638 360.83 309.031 360.661 308.328L328.484 175.313ZM420.325 188.888L448.84 194.318L457.947 196.053C458.48 196.153 459.028 196.139 459.555 196.011C460.082 195.883 460.577 195.645 461.005 195.313L468.319 189.599L465.752 190.221L460.334 194.45C460.028 194.688 459.675 194.858 459.299 194.949C458.922 195.04 458.531 195.051 458.15 194.98L451.407 193.696L422.892 188.266L420.325 188.888ZM420.325 188.888L448.84 194.318L457.947 196.053C458.48 196.153 459.028 196.139 459.555 196.011C460.082 195.883 460.577 195.645 461.005 195.313L468.319 189.599L465.752 190.221L460.334 194.45C460.028 194.688 459.675 194.858 459.299 194.949C458.922 195.04 458.531 195.051 458.15 194.98L451.407 193.696L422.892 188.266L420.325 188.888ZM420.325 188.888L448.84 194.318L457.947 196.053C458.48 196.153 459.028 196.139 459.555 196.011C460.082 195.883 460.577 195.645 461.005 195.313L468.319 189.599L465.752 190.221L460.334 194.45C460.028 194.688 459.675 194.858 459.299 194.949C458.922 195.04 458.531 195.051 458.15 194.98L451.407 193.696L422.892 188.266L420.325 188.888Z" fill="#658494"/>
<path d="M536.388 228.845C535.863 226.665 536.224 224.366 537.391 222.453C538.558 220.539 540.436 219.166 542.612 218.636L572.005 211.516C574.18 210.997 576.472 211.362 578.379 212.531C580.285 213.7 581.651 215.577 582.177 217.752C582.703 219.927 582.347 222.221 581.185 224.134C580.024 226.046 578.153 227.419 575.981 227.953L546.589 235.074C544.411 235.599 542.114 235.238 540.201 234.07C538.289 232.902 536.917 231.023 536.388 228.845Z" fill="#19485F"/>
<path d="M211.563 204.142C215.587 204.142 218.849 200.878 218.849 196.851C218.849 192.825 215.587 189.561 211.563 189.561C207.54 189.561 204.278 192.825 204.278 196.851C204.278 200.878 207.54 204.142 211.563 204.142Z" fill="white"/>
</g>
<defs>
<clipPath id="clip0_369_2289">
<rect width="600" height="514" fill="white"/>
</clipPath>
</defs>
</svg>
