<svg width="494" height="481" viewBox="0 0 494 481" fill="none" xmlns="http://www.w3.org/2000/svg">
<g clip-path="url(#clip0_606_1984)">
<path d="M314.737 107.789H288.481V331.635C288.481 335.148 287.79 338.625 286.445 341.87C285.101 345.115 283.131 348.063 280.648 350.546C278.165 353.03 275.216 355 271.972 356.344C268.727 357.688 265.249 358.38 261.737 358.38H61V358.635C61 362.148 61.6917 365.625 63.0357 368.87C64.3797 372.115 66.3497 375.063 68.8331 377.546C71.3165 380.03 74.2648 382 77.5096 383.344C80.7543 384.688 84.232 385.38 87.7441 385.38H314.737C318.249 385.38 321.727 384.688 324.972 383.344C328.216 382 331.165 380.03 333.648 377.546C336.131 375.063 338.101 372.115 339.445 368.87C340.789 365.625 341.481 362.148 341.481 358.635V134.533C341.481 127.44 338.664 120.638 333.648 115.622C328.633 110.607 321.83 107.789 314.737 107.789Z" fill="#E8EDEF"/>
<path d="M439.202 463.515C439.667 463.536 440.127 463.414 440.52 463.165C440.914 462.916 441.221 462.553 441.4 462.123C441.58 461.694 441.623 461.22 441.524 460.765C441.425 460.311 441.189 459.897 440.847 459.581L440.691 458.963C440.712 458.914 440.733 458.864 440.753 458.815C441.221 457.709 442.006 456.766 443.009 456.104C444.011 455.443 445.187 455.092 446.388 455.097C447.589 455.101 448.762 455.46 449.759 456.129C450.757 456.798 451.535 457.747 451.995 458.857C453.833 463.285 456.174 467.721 456.75 472.403C457.004 474.472 456.897 476.57 456.434 478.603C460.752 469.183 462.995 458.945 463.009 448.582C463.01 445.982 462.866 443.384 462.576 440.799C462.337 438.681 462.006 436.577 461.582 434.489C459.267 423.158 454.298 412.537 447.082 403.499C443.589 401.594 440.764 398.663 438.989 395.103C438.345 393.823 437.891 392.457 437.639 391.047C438.033 391.098 439.124 385.098 438.827 384.73C439.376 383.897 440.359 383.483 440.958 382.67C443.941 378.626 448.05 379.332 450.195 384.827C454.777 387.14 454.821 390.975 452.01 394.664C450.221 397.01 449.975 400.186 448.406 402.698C448.567 402.905 448.735 403.105 448.896 403.312C451.848 407.108 454.421 411.183 456.577 415.481C456.053 410.666 456.679 405.796 458.404 401.271C460.152 397.054 463.429 393.502 466.314 389.856C467.078 388.877 468.114 388.146 469.293 387.755C470.471 387.365 471.739 387.332 472.936 387.662C474.133 387.992 475.205 388.67 476.017 389.609C476.829 390.548 477.345 391.707 477.498 392.939C477.504 392.993 477.51 393.047 477.516 393.101C477.087 393.342 476.668 393.599 476.257 393.871C475.741 394.215 475.342 394.707 475.111 395.283C474.879 395.858 474.828 396.49 474.962 397.096C475.096 397.701 475.41 398.252 475.862 398.676C476.315 399.1 476.885 399.378 477.498 399.472L477.561 399.482C477.408 401.027 477.138 402.558 476.753 404.061C480.455 418.377 472.463 423.591 461.052 423.825C460.8 423.955 460.555 424.084 460.303 424.207C462.47 430.347 463.829 436.743 464.346 443.234C464.639 447.064 464.622 450.911 464.294 454.738L464.314 454.602C465.141 450.347 467.41 446.507 470.74 443.732C475.686 439.669 482.673 438.173 488.009 434.907C488.576 434.543 489.235 434.349 489.909 434.347C490.583 434.346 491.243 434.537 491.812 434.898C492.38 435.259 492.834 435.776 493.119 436.386C493.404 436.997 493.508 437.676 493.42 438.344L493.398 438.487C492.603 438.811 491.828 439.184 491.079 439.604C490.651 439.846 490.231 440.103 489.821 440.374C489.305 440.719 488.905 441.211 488.674 441.787C488.443 442.362 488.391 442.994 488.525 443.6C488.659 444.205 488.973 444.756 489.426 445.18C489.879 445.604 490.449 445.882 491.062 445.976L491.125 445.986C491.17 445.992 491.208 445.999 491.254 446.005C489.895 449.25 487.987 452.237 485.615 454.834C483.3 467.332 473.359 468.517 462.725 464.878H462.718C461.552 469.948 459.861 474.883 457.674 479.604H439.654C439.589 479.404 439.531 479.197 439.473 478.997C441.141 479.102 442.815 479.002 444.459 478.7C443.122 477.059 441.785 475.406 440.448 473.765C440.418 473.735 440.39 473.702 440.364 473.669C439.686 472.829 439.001 471.996 438.323 471.156L438.323 471.155C438.287 468.581 438.583 466.013 439.202 463.515Z" fill="#B8C6CD"/>
<path d="M240.724 77.339C241.382 78.3358 242.249 79.1777 243.264 79.8067C244.28 80.4356 245.419 80.8365 246.605 80.9816C247.79 81.1267 248.993 81.0126 250.13 80.6471C251.267 80.2816 252.311 79.6735 253.19 78.8648L290.655 95.7675L297.878 86.5542L253.234 66.8039C251.763 65.4258 249.837 64.6352 247.822 64.582C245.806 64.5288 243.842 65.2166 242.3 66.5152C240.758 67.8138 239.746 69.6329 239.456 71.6278C239.165 73.6227 239.617 75.6548 240.724 77.339Z" fill="#A0616A"/>
<path d="M401.508 87.8796L405.224 108.936C405.397 109.918 405.363 110.926 405.124 111.894C404.885 112.863 404.446 113.771 403.835 114.559C403.224 115.348 402.456 116 401.578 116.474C400.7 116.949 399.733 117.234 398.739 117.312L335.6 122.277L261.383 89.0616L270.247 72.2344L334.674 92.6365L401.508 87.8796Z" fill="#19485F"/>
<path d="M253.737 72.7891H26.7441C11.9737 72.7891 0 84.7628 0 99.5331V323.635C0 338.406 11.9737 350.38 26.7441 350.38H253.737C268.508 350.38 280.481 338.406 280.481 323.635V99.5331C280.481 84.7628 268.508 72.7891 253.737 72.7891Z" fill="#E8EDEF"/>
<path d="M26.7441 78.2891C23.9543 78.2891 21.1918 78.8385 18.6143 79.9062C16.0369 80.9738 13.695 82.5386 11.7223 84.5113C9.74956 86.484 8.18471 88.826 7.1171 91.4034C6.04948 93.9809 5.5 96.7434 5.5 99.5332V323.636C5.5 329.27 7.73821 334.674 11.7223 338.658C15.7063 342.642 21.1098 344.88 26.7441 344.88H171.617C185.191 344.88 198.632 342.206 211.172 337.012C223.713 331.817 235.108 324.203 244.706 314.605C254.304 305.007 261.918 293.612 267.113 281.071C272.307 268.531 274.981 255.09 274.981 241.516V99.5332C274.981 96.7434 274.431 93.9809 273.364 91.4034C272.296 88.826 270.731 86.484 268.759 84.5113C266.786 82.5386 264.444 80.9738 261.867 79.9062C259.289 78.8385 256.527 78.2891 253.737 78.2891H26.7441Z" fill="white"/>
<path d="M203.696 146.3H76.2894C75.1203 146.3 73.9991 145.836 73.1724 145.009C72.3458 144.183 71.8813 143.061 71.8813 141.892C71.8813 140.723 72.3458 139.602 73.1724 138.775C73.9991 137.949 75.1203 137.484 76.2894 137.484H203.696C204.865 137.484 205.986 137.949 206.813 138.775C207.639 139.602 208.104 140.723 208.104 141.892C208.104 143.061 207.639 144.183 206.813 145.009C205.986 145.836 204.865 146.3 203.696 146.3Z" fill="#E8EDEF"/>
<path d="M203.696 240.3H76.2894C75.1203 240.3 73.9991 239.836 73.1724 239.009C72.3458 238.183 71.8813 237.061 71.8813 235.892C71.8813 234.723 72.3458 233.602 73.1724 232.775C73.9991 231.949 75.1203 231.484 76.2894 231.484H203.696C204.865 231.484 205.986 231.949 206.813 232.775C207.639 233.602 208.104 234.723 208.104 235.892C208.104 237.061 207.639 238.183 206.813 239.009C205.986 239.836 204.865 240.3 203.696 240.3Z" fill="#E8EDEF"/>
<path d="M255.433 193.331H24.5521C23.383 193.331 22.2618 192.866 21.4351 192.04C20.6085 191.213 20.144 190.092 20.144 188.923C20.144 187.754 20.6085 186.632 21.4351 185.806C22.2618 184.979 23.383 184.515 24.5521 184.515H255.433C256.602 184.515 257.723 184.979 258.549 185.806C259.376 186.632 259.841 187.754 259.841 188.923C259.841 190.092 259.376 191.213 258.549 192.04C257.723 192.866 256.602 193.331 255.433 193.331Z" fill="#E8EDEF"/>
<path d="M393.531 180.687L370.531 229.687L459.008 220.726L440.539 173.687L393.531 180.687Z" fill="#A0616A"/>
<path d="M414.101 462.32L405.712 462.249L401.999 429.138L414.379 429.243L414.101 462.32Z" fill="#A0616A"/>
<path d="M387.231 475.659C387.223 476.654 387.61 477.611 388.307 478.32C389.005 479.029 389.955 479.433 390.949 479.443L407.628 479.582L410.547 473.663L411.62 479.612L417.913 479.669L416.324 458.452L414.134 458.307L405.204 457.691L402.323 457.498L402.272 463.501L388.874 472.589C388.372 472.929 387.96 473.387 387.674 473.921C387.388 474.456 387.236 475.053 387.231 475.659Z" fill="#2F2E41"/>
<path d="M321.266 462.358L313.268 459.825L319.447 427.085L331.251 430.822L321.266 462.358Z" fill="#A0616A"/>
<path d="M291.663 467.214C291.364 468.162 291.453 469.19 291.911 470.073C292.369 470.956 293.158 471.621 294.106 471.922L310.007 476.956L314.537 472.156L313.814 478.158L319.813 480.061L324.528 459.314L322.478 458.531L314.122 455.319L311.425 454.288L309.613 460.011L294.136 464.761C293.556 464.939 293.028 465.256 292.597 465.683C292.167 466.11 291.846 466.635 291.663 467.214Z" fill="#2F2E41"/>
<path d="M454.978 206.946L374.531 221.687C374.531 221.687 361.628 231.339 365.08 234.796C368.531 238.252 369.067 237.717 366.799 239.985C364.531 242.252 359.628 245.284 359.58 247.268C359.531 249.252 323.531 338.252 323.531 338.252C323.531 338.252 327.531 336.252 324.531 339.252C321.531 342.252 321.531 344.731 321.531 344.731L307.531 439.252L330.268 440.591L352.531 354.418L402.191 273.914C402.191 273.914 407.118 345.703 407.325 350.478C407.531 355.252 410.531 349.252 407.531 355.252C404.531 361.252 402.531 357.252 404.531 361.252C406.531 365.252 397.327 446.687 397.327 446.687H418.08L462.589 277.896C462.589 277.896 478.425 229.64 454.978 206.946Z" fill="#0B1E28"/>
<path d="M431.28 71.9342L399.055 68.5859L390.706 79.4252L380.98 84.6054C376.864 86.7976 373.466 90.129 371.194 94.2011C368.921 98.2733 367.87 102.914 368.165 107.568L379.531 173.687C379.531 173.687 369.93 195.306 376.531 200.687C383.132 206.068 371.428 219.394 385.531 212.687C399.635 205.98 460.531 213.687 460.531 213.687L447.531 176.687L457.243 140.329L458.312 109.844C458.511 104.147 456.821 98.5446 453.504 93.9092C450.186 89.2737 445.429 85.866 439.972 84.2171L438.614 83.8068L431.28 71.9342Z" fill="#19485F"/>
<path d="M475.644 47.2298C475.855 56.3128 472.46 65.1078 467.584 72.8328C466.135 68.323 463.53 64.2186 460.814 60.3059C462.183 68.7701 460.725 77.4497 456.664 85.0014C456.521 85.1038 456.372 85.1989 456.22 85.2864C452.245 87.6774 447.205 88.6458 442.906 86.9189C451.79 77.3422 452.92 61.475 445.472 50.7332C443.363 47.6852 440.636 44.9895 439.33 41.5208C437.267 35.9863 439.25 29.8926 440.5 24.1223C441.67 18.7519 441.874 12.3611 438.271 8.42521C438.656 7.87519 439.181 7.43736 439.79 7.15661C440.4 6.87586 441.073 6.76227 441.742 6.82748C443.963 7.14127 445.58 9.07213 446.61 11.0608C447.64 13.0494 448.319 15.2535 449.754 16.9711C452.412 20.1861 456.938 20.9462 460.753 22.6406C469.99 26.7552 475.422 37.1229 475.644 47.2298Z" fill="#2F2E41"/>
<path d="M237.651 479.658C237.65 479.814 237.681 479.969 237.74 480.114C237.8 480.258 237.888 480.39 237.998 480.5C238.109 480.611 238.24 480.698 238.385 480.758C238.53 480.818 238.685 480.848 238.841 480.848H492.131C492.447 480.848 492.749 480.722 492.972 480.499C493.196 480.276 493.321 479.973 493.321 479.658C493.321 479.342 493.196 479.039 492.972 478.816C492.749 478.593 492.447 478.468 492.131 478.468H238.841C238.685 478.467 238.53 478.498 238.385 478.557C238.24 478.617 238.109 478.705 237.998 478.815C237.888 478.926 237.8 479.057 237.741 479.202C237.681 479.346 237.65 479.501 237.651 479.658Z" fill="#95ABB5"/>
<path d="M477.638 257.748C482.609 257.748 486.638 253.719 486.638 248.748C486.638 243.777 482.609 239.748 477.638 239.748C472.668 239.748 468.638 243.777 468.638 248.748C468.638 253.719 472.668 257.748 477.638 257.748Z" fill="#174256"/>
<path d="M397.886 42.0365C398.414 40.1889 394.776 51.4828 396.531 51.6867C404.528 52.6041 415.505 57.3799 421.075 59.6079C421.326 59.5788 421.576 59.5497 421.82 59.5133C422.417 59.4477 423 59.3531 423.576 59.2439C436.544 56.7901 441.531 36.8687 441.531 36.6867C441.531 35.7912 439.382 11.1937 435.996 10.8297C435.107 10.7332 434.213 10.6846 433.318 10.6841H424.916C423.177 10.3095 421.415 10.054 419.641 9.91961H419.627C402.711 8.63084 389.374 18.9408 390.62 31.4862C390.628 31.5008 390.643 31.5153 390.65 31.5299C391.011 32.0687 391.329 32.5784 391.609 33.0662C391.882 33.5249 392.111 33.9618 392.31 34.3768C393.851 37.5805 389.888 41.6118 392.516 42.3642C396.011 43.365 383.324 76.2578 397.158 76.2578C390.429 78.171 396.43 47.1333 397.886 42.0365Z" fill="#2F2E41"/>
<path d="M412.986 61.3369C423.973 61.3369 432.88 52.4303 432.88 41.4434C432.88 30.4564 423.973 21.5498 412.986 21.5498C401.999 21.5498 393.093 30.4564 393.093 41.4434C393.093 52.4303 401.999 61.3369 412.986 61.3369Z" fill="#A0616A"/>
<path d="M390.621 32.571C390.953 32.7458 391.277 32.9059 391.609 33.0661C391.956 33.2336 392.303 33.4011 392.649 33.554C399.311 36.5756 404.733 36.9105 408.023 32.571C408.111 30.2877 408.624 28.0407 409.535 25.9452C409.374 28.2869 409.991 30.6163 411.291 32.571H417.915C424.739 37.0998 428.243 37.5731 423.507 52.4411C422.186 56.5841 416.936 80.6918 419.002 84.2669C419.599 84.2013 425.956 57.7959 426.531 57.6867C439.5 55.233 447.74 33.867 446.685 32.6584C446.69 29.2213 445.9 25.8296 444.376 22.7488C442.448 18.8456 439.443 15.5762 435.716 13.3271C433.494 12.2498 431.178 11.3796 428.796 10.7277C428.737 10.7131 428.686 10.6986 428.627 10.684C427.896 10.4874 427.151 10.3054 426.406 10.1525C424.867 9.82747 423.31 9.59166 421.744 9.44623C421.633 9.43894 421.523 9.43164 421.419 9.43164C420.794 9.4331 420.18 9.60153 419.641 9.91951C419.634 9.91951 419.634 9.92676 419.627 9.92676C419.242 10.1517 418.906 10.4512 418.638 10.8078C418.167 11.4077 417.912 12.1492 417.915 12.912H410.538C410.265 12.912 409.992 12.9193 409.719 12.9338C404.796 13.1021 400.113 15.1016 396.586 18.541C393.059 21.9804 390.942 26.6121 390.65 31.5298C390.628 31.8793 390.621 32.2215 390.621 32.571Z" fill="#2F2E41"/>
<path d="M434.117 26.212C441.355 26.212 447.223 20.3442 447.223 13.106C447.223 5.86775 441.355 0 434.117 0C426.878 0 421.011 5.86775 421.011 13.106C421.011 20.3442 426.878 26.212 434.117 26.212Z" fill="#2F2E41"/>
<path d="M477.739 252.458C478.379 251.45 478.792 250.314 478.95 249.13C479.107 247.947 479.006 246.743 478.652 245.602C478.299 244.461 477.702 243.41 476.902 242.523C476.103 241.636 475.121 240.933 474.023 240.462L474.088 199.361L462.723 196.548L463.003 245.365C462.349 247.272 462.417 249.352 463.194 251.213C463.972 253.073 465.404 254.583 467.221 255.457C469.037 256.331 471.111 256.509 473.05 255.957C474.989 255.404 476.657 254.159 477.739 252.458Z" fill="#A0616A"/>
<path d="M421.463 101.477L439.148 89.4589C439.973 88.8982 440.906 88.5162 441.887 88.3375C442.869 88.1587 443.876 88.1872 444.846 88.421C445.816 88.6548 446.726 89.0888 447.518 89.6951C448.31 90.3014 448.967 91.0667 449.446 91.9417L479.849 147.5L479.966 228.811L460.984 227.621L453.191 160.492L421.463 101.477Z" fill="#19485F"/>
<path d="M285.645 285.878H96.6455C92.5347 285.878 88.5921 287.511 85.6853 290.418C82.7785 293.325 81.1455 297.267 81.1455 301.378C81.1455 305.489 82.7785 309.431 85.6853 312.338C88.5921 315.245 92.5347 316.878 96.6455 316.878H285.645C289.756 316.878 293.699 315.245 296.606 312.338C299.512 309.431 301.145 305.489 301.145 301.378C301.145 297.267 299.512 293.325 296.606 290.418C293.699 287.511 289.756 285.878 285.645 285.878Z" fill="white"/>
<path d="M285.645 317.878H96.6455C92.2694 317.878 88.0726 316.14 84.9782 313.045C81.8839 309.951 80.1455 305.754 80.1455 301.378C80.1455 297.002 81.8839 292.805 84.9782 289.711C88.0726 286.616 92.2694 284.878 96.6455 284.878H285.645C290.022 284.878 294.218 286.616 297.313 289.711C300.407 292.805 302.145 297.002 302.145 301.378C302.145 305.754 300.407 309.951 297.313 313.045C294.218 316.14 290.022 317.878 285.645 317.878ZM96.6455 286.878C92.7999 286.878 89.1117 288.406 86.3925 291.125C83.6732 293.844 82.1455 297.532 82.1455 301.378C82.1455 305.224 83.6732 308.912 86.3925 311.631C89.1117 314.35 92.7999 315.878 96.6455 315.878H285.645C289.491 315.878 293.179 314.35 295.899 311.631C298.618 308.912 300.145 305.224 300.145 301.378C300.145 297.532 298.618 293.844 295.899 291.125C293.179 288.406 289.491 286.878 285.645 286.878H96.6455Z" fill="#19485F"/>
<path d="M296.79 353.52H213.384C212.215 353.52 211.093 353.056 210.267 352.229C209.44 351.402 208.976 350.281 208.976 349.112C208.976 347.943 209.44 346.822 210.267 345.995C211.093 345.169 212.215 344.704 213.384 344.704H296.79C297.959 344.704 299.08 345.169 299.907 345.995C300.734 346.822 301.198 347.943 301.198 349.112C301.198 350.281 300.734 351.402 299.907 352.229C299.08 353.056 297.959 353.52 296.79 353.52Z" fill="#19485F"/>
</g>
<defs>
<clipPath id="clip0_606_1984">
<rect width="493.461" height="480.848" fill="white"/>
</clipPath>
</defs>
</svg>
