<svg width="600" height="428" viewBox="0 0 600 428" fill="none" xmlns="http://www.w3.org/2000/svg">
<g clip-path="url(#clip0_369_2316)">
<path d="M547.866 385.024C553.129 394.33 548.666 425.761 548.666 425.761C548.666 425.761 519.445 413.386 514.184 404.084C511.663 399.616 511.018 394.329 512.392 389.385C513.765 384.442 517.044 380.246 521.508 377.72C525.972 375.194 531.256 374.545 536.198 375.914C541.141 377.284 545.337 380.56 547.866 385.024Z" fill="#E8EDEF"/>
<path d="M549.09 425.72L548.469 425.851C542.49 397.431 521.61 378.159 521.4 377.968L521.827 377.498C522.038 377.691 543.067 397.094 549.09 425.72Z" fill="white"/>
<path d="M595.68 395.62C588.539 408.58 548.28 426.136 548.28 426.136C548.28 426.136 541.643 382.703 548.779 369.748C552.209 363.525 557.968 358.921 564.791 356.947C571.614 354.973 578.941 355.792 585.16 359.223C591.379 362.654 595.982 368.416 597.955 375.242C599.927 382.067 599.109 389.398 595.68 395.62Z" fill="#E8EDEF"/>
<path d="M548.636 426.606L548.031 425.969C577.163 398.289 584.705 359.684 584.778 359.297L585.641 359.459C585.567 359.849 577.98 398.725 548.636 426.606Z" fill="white"/>
<path d="M141.061 297.489C136.454 297.473 131.867 296.88 127.407 295.722L126.528 295.478L125.713 295.07C96.234 280.283 71.3644 260.751 51.7945 237.017C35.5948 217.256 22.9648 194.818 14.4723 170.714C4.31673 141.855 -0.569116 111.405 0.048046 80.8159C0.0604992 80.1739 0.0710384 79.6781 0.0710384 79.3365C0.0710384 64.4671 8.32088 51.4203 21.0884 46.098C30.8601 42.0246 119.582 5.56604 125.992 2.93181C138.065 -3.12008 150.944 1.93117 153.005 2.8145C157.628 4.7055 239.646 38.2674 257.37 46.711C275.637 55.4133 280.51 71.0467 280.51 78.9121C280.51 114.521 274.346 147.801 262.189 177.827C252.37 202.13 238.455 224.567 221.048 244.16C187.463 281.972 153.87 295.376 153.546 295.494C149.531 296.877 145.307 297.551 141.061 297.489ZM133.161 277.911C136.074 278.564 142.779 279.544 147.15 277.949C152.702 275.923 180.819 261.336 207.093 231.754C243.396 190.882 261.816 139.503 261.843 79.0435C261.778 77.8186 260.908 69.0823 249.344 63.5734C231.964 55.2931 146.713 20.418 145.854 20.0665L145.619 19.9667C143.832 19.2177 138.146 17.64 134.227 19.6948L133.442 20.0608C132.492 20.4512 38.3127 59.1506 28.2684 63.3376C21.2422 66.2666 18.7387 73.5226 18.7387 79.3366C18.7387 79.7615 18.7277 80.3795 18.7122 81.1783C17.9094 122.547 27.478 224.343 133.161 277.911Z" fill="#123343"/>
<path d="M129.896 11.4228C129.896 11.4228 34.8609 50.4733 24.6786 54.7179C14.4962 58.9625 9.40499 69.1496 9.40499 79.3367C9.40499 89.5238 1.76823 222.451 129.896 286.722C129.896 286.722 141.525 289.941 150.348 286.722C159.171 283.503 271.177 229.172 271.177 78.9122C271.177 78.9122 271.177 63.6316 253.357 55.1423C235.538 46.6531 149.386 11.4228 149.386 11.4228C149.386 11.4228 138.806 6.75372 129.896 11.4228Z" fill="#19485F"/>
<path opacity="0.1" d="M140.079 41.9844V250.305C140.079 250.305 44.1947 204.129 45.0432 82.7327L140.079 41.9844Z" fill="black"/>
<path d="M141.329 191.707L110.785 152.416L128.548 138.594L143.01 157.198L191.867 105.599L208.205 121.085L141.329 191.707Z" fill="white"/>
<path d="M599.267 428H320.171C319.976 428 319.79 427.923 319.653 427.785C319.515 427.648 319.438 427.461 319.438 427.267C319.438 427.073 319.515 426.886 319.653 426.749C319.79 426.611 319.976 426.534 320.171 426.534H599.267C599.462 426.534 599.648 426.611 599.785 426.749C599.923 426.886 600 427.073 600 427.267C600 427.461 599.923 427.648 599.785 427.785C599.648 427.923 599.462 428 599.267 428Z" fill="#B8C6CD"/>
<path d="M400.849 416.448L412.178 416.447L417.568 372.729L400.847 372.729L400.849 416.448Z" fill="#FFB8B8"/>
<path d="M397.959 412.747L420.27 412.746H420.271C424.042 412.746 427.659 414.245 430.325 416.913C432.991 419.58 434.49 423.198 434.49 426.971V427.433L397.96 427.435L397.959 412.747Z" fill="#0E2834"/>
<path d="M438.941 416.448L450.27 416.447L455.66 372.729L438.939 372.729L438.941 416.448Z" fill="#FFB8B8"/>
<path d="M436.051 412.747L458.362 412.746H458.363C462.134 412.746 465.75 414.245 468.417 416.913C471.083 419.58 472.581 423.198 472.582 426.971V427.433L436.051 427.435L436.051 412.747Z" fill="#0E2834"/>
<path d="M418.655 262.92L421.373 401.617L399.389 400.253L384.137 311.91L379.32 251.676L418.655 262.92Z" fill="#0E2834"/>
<path d="M456.384 239.629L459.465 403.815L433.826 403.082L428.288 305.484L418.655 270.147L379.321 251.676L385.743 207.504L443.54 206.701L456.384 239.629Z" fill="#0E2834"/>
<path d="M412.181 92.6596C423.039 92.6596 431.841 83.8534 431.841 72.9904C431.841 62.1275 423.039 53.3213 412.181 53.3213C401.323 53.3213 392.521 62.1275 392.521 72.9904C392.521 83.8534 401.323 92.6596 412.181 92.6596Z" fill="#CEA6B2"/>
<path d="M428.487 100.945L431.499 105.51L439.527 127.997L433.105 215.536L395.375 216.34L390.56 115.949L400.649 103.332L428.487 100.945Z" fill="#B8C6CD"/>
<path d="M375.307 118.359L368.885 117.556C368.885 117.556 367.28 118.359 366.477 123.981C365.674 129.602 356.042 179.396 356.042 179.396L368.885 240.432L383.335 221.158L374.505 187.427L383.335 153.696L375.307 118.359Z" fill="#0E2834"/>
<path d="M457.187 117.557H462.004L474.045 182.608L462.806 233.205L451.568 214.733L454.778 194.655L453.174 176.987L447.554 166.546L457.187 117.557Z" fill="#0E2834"/>
<path d="M423.799 72.99L420.224 72.096C420.224 72.096 417.543 56.8971 411.288 58.6852C405.032 60.4733 388.947 62.2614 388.947 55.109C388.947 47.9565 404.139 41.6982 413.075 42.5922C422.011 43.4863 433.424 46.4523 436.31 59.5792C440.934 80.6223 426.767 85.9375 426.767 85.9375L427.003 85.1713C427.658 83.0439 427.704 80.7758 427.138 78.6232C426.572 76.4706 425.415 74.5194 423.799 72.99Z" fill="#0B1E28"/>
<path d="M369.688 117.556L395.376 107.116L401.396 102.698L419.458 182.608L427.887 100.289L461.201 117.556L449.962 172.168L448.357 193.049L453.173 209.914C453.173 209.914 470.031 221.961 464.412 234.811C458.793 247.661 452.371 248.464 452.371 248.464C452.371 248.464 425.077 222.764 423.472 216.339C421.866 209.914 419.458 198.671 419.458 198.671C419.458 198.671 405.811 250.07 389.757 249.267C373.702 248.464 373.702 231.598 373.702 231.598L377.715 213.93L384.138 195.458L380.926 164.94L369.688 117.556Z" fill="#0E2834"/>
</g>
<defs>
<clipPath id="clip0_369_2316">
<rect width="600" height="428" fill="white"/>
</clipPath>
</defs>
</svg>
